{"title":"Men In Black III 2012 TS XViD UNiQUE","uid":7317381,"size":1352350664,"categoryP":"video","categoryS":"movies","magnet":"?xt=urn:btih:37a8a7e512189657ec12dcdc41d20a7cf1f997c3&amp;dn=Men+In+Black+III+2012+TS+XViD+UNiQUE&amp;tr=udp%3A%2F%2Ftracker.openbittorrent.com%3A80&amp;tr=udp%3A%2F%2Fopen.demonii.com%3A1337&amp;tr=udp%3A%2F%2Ftracker.coppersurfer.tk%3A6969&amp;tr=udp%3A%2F%2Fexodus.desync.com%3A6969","seeders":2,"leechers":0,"uploader":".BONE.","files":2,"time":1338517778,"description":"Format : AVI\nFormat/Info : Audio Video Interleave\nFile size : 1.25 GiB\nDuration : 1h 37mn\nOverall bit rate : 1 843 Kbps\nWriting library : VirtualDub build 32842/release\n\nSource used : Unknown................Thanks\n &lt;a href=&quot;\nhttp://www.imdb.com/title/tt1409024/&quot; rel=&quot;nofollow&quot; target=&quot;_NEW&quot;&gt;\nhttp://www.imdb.com/title/tt1409024/&lt;/a&gt;\n\nVideo\nID : 0\nFormat : MPEG-4 Visual\nFormat profile : Advanced Simple@L5\nFormat settings, BVOP : 2\nFormat settings, QPel : No\nFormat settings, GMC : No warppoints\nFormat settings, Matrix : Default (H.263)\nMuxing mode : Packed bitstream\nCodec ID : XVID\nCodec ID/Hint : XviD\nDuration : 1h 37mn\nBit rate : 1 673 Kbps\nWidth : 672 pixels\nHeight : 352 pixels\nDisplay aspect ratio : 1.909\nFrame rate : 25.000 fps\nColor space : YUV\nChroma subsampling : 4:2:0\nBit depth : 8 bits\nScan type : Progressive\nCompression mode : Lossy\nBits/(Pixel*Frame) : 0.283\nStream size : 1.13 GiB (91%)\nWriting library : XviD 64\n\nAudio\nID : 1\nFormat : MPEG Audio\nFormat version : Version 1\nFormat profile : Layer 3\nCodec ID : 55\nCodec ID/Hint : MP3\nDuration : 1h 37mn\nBit rate mode : Constant\nBit rate : 160 Kbps\nChannel(s) : 2 channels\nSampling rate : 48.0 KHz\nCompression mode : Lossy\nStream size : 111 MiB (9%)\nAlignment : Split accross interleaves\nInterleave, duration : 40 ms (1.00 video frame)\nInterleave, preload duration : 500 ms\nWriting library : LAMEÃ‚ÂªÃ‚ÂªÃ‚Â§p\n\nAgent J travels in time to MIB's early years in the 1960s, to stop an alien from assassinating his friend Agent K and changing history.\n\n &lt;a href=&quot;\nhttp://img88.imageshack.us/img88/1160/vlcsnap2012053119h39m18.png&quot; rel=&quot;nofollow&quot; target=&quot;_NEW&quot;&gt;\nhttp://img88.imageshack.us/img88/1160/vlcsnap2012053119h39m18.png&lt;/a&gt; &lt;a href=&quot;\nhttp://img534.imageshack.us/img534/8140/vlcsnap2012053119h37m00.png&quot; rel=&quot;nofollow&quot; target=&quot;_NEW&quot;&gt;\nhttp://img534.imageshack.us/img534/8140/vlcsnap2012053119h37m00.png&lt;/a&gt; &lt;a href=&quot;\nhttp://img507.imageshack.us/img507/482/vlcsnap2012053119h42m17.png&quot; rel=&quot;nofollow&quot; target=&quot;_NEW&quot;&gt;\nhttp://img507.imageshack.us/img507/482/vlcsnap2012053119h42m17.png&lt;/a&gt;","torrent":{"xt":"urn:btih:37a8a7e512189657ec12dcdc41d20a7cf1f997c3","amp;dn":"Men+In+Black+III+2012+TS+XViD+UNiQUE","amp;tr":["udp%3A%2F%2Ftracker.openbittorrent.com%3A80","udp%3A%2F%2Fopen.demonii.com%3A1337","udp%3A%2F%2Ftracker.coppersurfer.tk%3A6969","udp%3A%2F%2Fexodus.desync.com%3A6969"],"infoHash":"37a8a7e512189657ec12dcdc41d20a7cf1f997c3","infoHashBuffer":{"type":"Buffer","data":[55,168,167,229,18,24,150,87,236,18,220,220,65,210,10,124,241,249,151,195]},"announce":[],"urlList":[]}}